<?xml version="1.0" encoding="UTF-8"?>
<svg xmlns="http://www.w3.org/2000/svg" style="position:absolute;width:0;height:0;overflow:hidden">
    <symbol id="bank" viewBox="0 0 24 24">
        <path fill="currentColor"
            d="M12 3 2 8v2h20V8L12 3Zm-8 7v10h4V10H4Zm6 0v10h4V10h-4Zm6 0v10h4V10h-4ZM2 22h20v-2H2v2Z" />
    </symbol>

    <symbol id="dashboard" viewBox="0 0 24 24">
        <path fill="currentColor" d="M4 21h16v-2H4v2Zm2-4h3V9H6v8Zm5 0h3V5h-3v12Zm5 0h3v-6h-3v6Z" />
    </symbol>

    <symbol id="card" viewBox="0 0 24 24">
        <path fill="currentColor"
            d="M3 6a3 3 0 0 1 3-3h12a3 3 0 0 1 3 3v12a3 3 0 0 1-3 3H6a3 3 0 0 1-3-3V6Zm3-1a1 1 0 0 0-1 1v1h18V6a1 1 0 0 0-1-1H6Zm17 6H5v7a1 1 0 0 0 1 1h12a1 1 0 0 0 1-1v-7Z" />
    </symbol>

    <symbol id="transfer" viewBox="0 0 24 24">
        <path fill="currentColor"
            d="M7 7h13l-3-3 1.4-1.4L24 8l-5.6 5.4L17 12l3-3H7V7Zm10 10H4l3 3-1.4 1.4L0 16l5.6-5.4L7 12l-3 3h13v2Z" />
    </symbol>

    <symbol id="document" viewBox="0 0 24 24">
        <path fill="currentColor"
            d="M6 2h9l5 5v15a2 2 0 0 1-2 2H6a2 2 0 0 1-2-2V4a2 2 0 0 1 2-2Zm8 1.5V8h4.5L14 3.5ZM7 12h10v2H7v-2Zm0 4h10v2H7v-2Zm0-8h6v2H7V8Z" />
    </symbol>

    <symbol id="settings" viewBox="0 0 24 24">
        <path fill="currentColor"
            d="M19.4 13a7.9 7.9 0 0 0 .1-1 7.9 7.9 0 0 0-.1-1l2-1.6-2-3.4-2.4 1a7.6 7.6 0 0 0-1.7-1L15 2h-6l-.3 2.9a7.6 7.6 0 0 0-1.7 1l-2.4-1-2 3.4 2 1.6a7.9 7.9 0 0 0-.1 1 7.9 7.9 0 0 0 .1 1l-2 1.6 2 3.4 2.4-1a7.6 7.6 0 0 0 1.7 1L9 22h6l.3-2.9a7.6 7.6 0 0 0 1.7-1l2.4 1 2-3.4-2-1.6ZM12 15.5A3.5 3.5 0 1 1 12 8a3.5 3.5 0 0 1 0 7.5Z" />
    </symbol>

    <symbol id="logout" viewBox="0 0 24 24">
        <path fill="currentColor"
            d="M10 17v-2h4V9h-4V7h6a2 2 0 0 1 2 2v6a2 2 0 0 1-2 2h-6Zm-1-1.6L3.6 12 9 8.6V11h7v2H9v2.4Z" />
    </symbol>

    <symbol id="user" viewBox="0 0 24 24">
        <path fill="currentColor"
            d="M12 12a5 5 0 1 0-5-5 5 5 0 0 0 5 5Zm0 2c-5 0-9 2.5-9 5.5V22h18v-2.5C21 16.5 17 14 12 14Z" />
    </symbol>

    <symbol id="lock" viewBox="0 0 24 24">
        <path fill="currentColor"
            d="M7 10V8a5 5 0 0 1 10 0v2h1a2 2 0 0 1 2 2v8a2 2 0 0 1-2 2H6a2 2 0 0 1-2-2v-8a2 2 0 0 1 2-2h1Zm2 0h6V8a3 3 0 0 0-6 0v2Z" />
    </symbol>

    <symbol id="chart" viewBox="0 0 24 24">
        <path fill="currentColor"
            d="M4 19h16v2H4v-2Zm1-3 4-4 3 3 6-7 1.5 1.3L12 18l-3-3-2.5 2.5L5 16Z" />
    </symbol>

    <symbol id="money" viewBox="0 0 24 24">
        <path fill="currentColor"
            d="M12 2a10 10 0 1 0 10 10A10 10 0 0 0 12 2Zm1 16.9V19h-2v-.1a4.5 4.5 0 0 1-3-2.3l1.8-1a2.7 2.7 0 0 0 2.4 1.4h1.2c1 0 1.6-.5 1.6-1.2 0-.8-.6-1.1-2.4-1.5-2.2-.5-4.4-1.2-4.4-3.6A3.5 3.5 0 0 1 11 7.2V7h2v.2a4.2 4.2 0 0 1 2.6 1.6l-1.6 1.3A2.5 2.5 0 0 0 12.6 9H11.7c-.9 0-1.5.4-1.5 1 0 .7.7 1 2.5 1.4 2.4.6 4.3 1.4 4.3 3.8a3.6 3.6 0 0 1-3 3.7Z" />
    </symbol>

    <symbol id="mobile" viewBox="0 0 24 24">
        <path fill="currentColor"
            d="M8 2h8a2 2 0 0 1 2 2v16a2 2 0 0 1-2 2H8a2 2 0 0 1-2-2V4a2 2 0 0 1 2-2Zm0 3v14h8V5H8Zm4 16a1.2 1.2 0 1 0 0-2.4A1.2 1.2 0 0 0 12 21Z" />
    </symbol>

    <symbol id="plus" viewBox="0 0 24 24">
        <path fill="currentColor" d="M11 11V5h2v6h6v2h-6v6h-2v-6H5v-2h6Z" />
    </symbol>

    <symbol id="check" viewBox="0 0 24 24">
        <path fill="currentColor" d="M9.2 16.6 4.8 12.2l1.4-1.4 3 3 8.6-8.6 1.4 1.4-10 10Z" />
    </symbol>

    <symbol id="edit" viewBox="0 0 24 24">
        <path fill="currentColor"
            d="M3 17.2V21h3.8L18.1 9.7l-3.8-3.8L3 17.2Zm18.7-11.9a1 1 0 0 0 0-1.4L20.1 2.3a1 1 0 0 0-1.4 0l-2 2 3.8 3.8 1.2-1.2Z" />
    </symbol>

    <symbol id="warning" viewBox="0 0 24 24">
        <path fill="currentColor" d="M12 2 1 21h22L12 2Zm1 15h-2v-2h2v2Zm0-4h-2V9h2v4Z" />
    </symbol>

    <symbol id="info" viewBox="0 0 24 24">
        <path fill="currentColor"
            d="M12 2a10 10 0 1 0 10 10A10 10 0 0 0 12 2Zm1 15h-2v-6h2v6Zm0-8h-2V7h2v2Z" />
    </symbol>

    <symbol id="error" viewBox="0 0 24 24">
        <path fill="currentColor"
            d="M12 2a10 10 0 1 0 10 10A10 10 0 0 0 12 2Zm4.2 13.8-1.4 1.4L12 13.4l-2.8 2.8-1.4-1.4L10.6 12 7.8 9.2l1.4-1.4L12 10.6l2.8-2.8 1.4 1.4L13.4 12l2.8 2.8Z" />
    </symbol>

    <symbol id="clipboard" viewBox="0 0 24 24">
        <path fill="currentColor"
            d="M9 2h6a2 2 0 0 1 2 2h1a2 2 0 0 1 2 2v14a2 2 0 0 1-2 2H6a2 2 0 0 1-2-2V6a2 2 0 0 1 2-2h1a2 2 0 0 1 2-2Zm0 4h6V4H9v2Zm-3 2v12h12V8H6Z" />
    </symbol>

    <symbol id="eye" viewBox="0 0 24 24">
        <path fill="currentColor"
            d="M12 5c-5.5 0-10 6-10 7s4.5 7 10 7 10-6 10-7-4.5-7-10-7Zm0 11a4 4 0 1 1 0-8 4 4 0 0 1 0 8Z" />
    </symbol>

    <symbol id="eye-off" viewBox="0 0 24 24">
        <path fill="currentColor"
            d="M2.1 3.5 3.5 2.1 21.9 20.5 20.5 21.9l-3.1-3.1A10.9 10.9 0 0 1 12 20C6.5 20 2 14 2 12a11.5 11.5 0 0 1 4.1-5.8L2.1 3.5Zm10.3 10.3 2.8 2.8a4 4 0 0 1-5.5-5.5l2.7 2.7Zm-6-6A9.7 9.7 0 0 0 4 12c.8 1.4 3.9 6 8 6a8.9 8.9 0 0 0 4.1-1l-1.8-1.8A6 6 0 0 1 6.4 7.8ZM12 4c5.5 0 10 6 10 8a11.3 11.3 0 0 1-3.1 4.7l-1.5-1.5A9.6 9.6 0 0 0 20 12c-.8-1.4-3.9-6-8-6a8.8 8.8 0 0 0-2.6.4L7.7 4.7A10.9 10.9 0 0 1 12 4Z" />
    </symbol>

    <symbol id="moon" viewBox="0 0 24 24">
        <path fill="currentColor" d="M21 14.5A8.5 8.5 0 0 1 9.5 3a7.5 7.5 0 1 0 11.5 11.5Z" />
    </symbol>

    <symbol id="sun" viewBox="0 0 24 24">
        <path fill="currentColor"
            d="M12 18a6 6 0 1 1 0-12 6 6 0 0 1 0 12Zm0-14h2v3h-2V4ZM4 11h3v2H4v-2Zm13 0h3v2h-3v-2ZM12 17h2v3h-2v-3ZM6.3 6.3l1.4-1.4 2.1 2.1-1.4 1.4-2.1-2.1Zm9.2 9.2 1.4-1.4 2.1 2.1-1.4 1.4-2.1-2.1ZM17.7 6.3 15.6 8.4l-1.4-1.4 2.1-2.1 1.4 1.4ZM8.4 15.6l-2.1 2.1-1.4-1.4 2.1-2.1 1.4 1.4Z" />
    </symbol>

    <symbol id="bolt" viewBox="0 0 24 24">
        <path fill="currentColor" d="M13 2 3 14h7l-1 8 12-14h-7l-1-6Z" />
    </symbol>

    <symbol id="target" viewBox="0 0 24 24">
        <path fill="currentColor"
            d="M12 2a10 10 0 1 0 10 10h-2A8 8 0 1 1 12 4V2Zm0 6a4 4 0 1 0 4 4h-2a2 2 0 1 1-2-2V8Zm9-3 1 1-3 3a9.8 9.8 0 0 1 1 3h-2a7.9 7.9 0 0 0-.5-2.2L14 13.3l-1.4-1.4 3.6-3.6A7.9 7.9 0 0 0 14 7.8V5.8a9.8 9.8 0 0 1 3 .9l4-4Z" />
    </symbol>

    <symbol id="support" viewBox="0 0 24 24">
        <path fill="currentColor"
            d="M12 2a8 8 0 0 0-8 8v4a3 3 0 0 0 3 3h1v-7H6v-0.2A6 6 0 0 1 18 9.8V10h-2v7h1a3 3 0 0 0 3-3v-4a8 8 0 0 0-8-8Zm-2 19h6v-2h-6v2Z" />
    </symbol>

    <symbol id="briefcase" viewBox="0 0 24 24">
        <path fill="currentColor"
            d="M9 3h6a2 2 0 0 1 2 2v2h3a2 2 0 0 1 2 2v3H2v-3a2 2 0 0 1 2-2h3V5a2 2 0 0 1 2-2Zm6 4V5H9v2h6Zm7 9v5a2 2 0 0 1-2 2H4a2 2 0 0 1-2-2v-5h8v2h4v-2h8Z" />
    </symbol>

    <symbol id="home" viewBox="0 0 24 24">
        <path fill="currentColor" d="M12 3 2 12h3v9h6v-6h2v6h6v-9h3L12 3Z" />
    </symbol>

    <symbol id="car" viewBox="0 0 24 24">
        <path fill="currentColor"
            d="M5 11 6.5 6.5A3 3 0 0 1 9.3 4h5.4a3 3 0 0 1 2.8 2.5L19 11h1a2 2 0 0 1 2 2v5h-2a2 2 0 0 1-4 0H8a2 2 0 0 1-4 0H2v-5a2 2 0 0 1 2-2h1Zm2.3-5L6.4 9h11.2l-.9-3a1 1 0 0 0-1-.7H9.3a1 1 0 0 0-1 .7ZM7 15a1.5 1.5 0 1 0 0-3 1.5 1.5 0 0 0 0 3Zm10 0a1.5 1.5 0 1 0 0-3 1.5 1.5 0 0 0 0 3Z" />
    </symbol>

    <symbol id="graduation" viewBox="0 0 24 24">
        <path fill="currentColor"
            d="M12 3 1 8l11 5 9-4.1V17h2V8L12 3Zm-6 9v4.5C6 18.4 8.7 20 12 20s6-1.6 6-3.5V12l-6 2.7L6 12Z" />
    </symbol>

    <symbol id="menu" viewBox="0 0 24 24">
        <path fill="currentColor" d="M3 6h18v2H3V6Zm0 5h18v2H3v-2Zm0 5h18v2H3v-2Z" />
    </symbol>

    <symbol id="arrow-up" viewBox="0 0 24 24">
        <path fill="currentColor" d="M12 4 5 11l1.4 1.4L11 7.8V20h2V7.8l4.6 4.6L19 11 12 4Z" />
    </symbol>

    <symbol id="arrow-down" viewBox="0 0 24 24">
        <path fill="currentColor" d="M12 20l7-7-1.4-1.4L13 16.2V4h-2v12.2L6.4 11.6 5 13l7 7Z" />
    </symbol>

    <symbol id="arrow-right" viewBox="0 0 24 24">
        <path fill="currentColor" d="M12 5 10.6 6.4l4.2 4.2H4v2h10.8l-4.2 4.2L12 18l7-7-7-7Z" />
    </symbol>
</svg>